<svg id="visual" viewBox="0 0 900 600" width="900" height="600" xmlns="http://www.w3.org/2000/svg" xmlns:xlink="http://www.w3.org/1999/xlink" version="1.1"><rect x="0" y="0" width="900" height="600" fill="#3166ff"></rect><defs><linearGradient id="grad1_0" x1="33.3%" y1="100%" x2="100%" y2="0%"><stop offset="20%" stop-color="#3166ff" stop-opacity="1"></stop><stop offset="80%" stop-color="#3166ff" stop-opacity="1"></stop></linearGradient></defs><defs><linearGradient id="grad2_0" x1="0%" y1="100%" x2="66.7%" y2="0%"><stop offset="20%" stop-color="#3166ff" stop-opacity="1"></stop><stop offset="80%" stop-color="#3166ff" stop-opacity="1"></stop></linearGradient></defs><g transform="translate(900, 600)"><path d="M-540.8 0C-534.6 -53.9 -528.4 -107.7 -514.4 -167.1C-500.3 -226.6 -478.3 -291.5 -420.7 -305.6C-363.1 -319.7 -269.8 -282.9 -225.1 -309.9C-180.4 -336.8 -184.2 -427.4 -154.8 -476.5C-125.4 -525.6 -62.7 -533.2 0 -540.8L0 0Z" fill="#000"></path></g><g transform="translate(0, 0)"><path d="M540.8 0C536.9 57 533 113.9 514.4 167.1C495.8 220.3 462.5 269.8 422.3 306.8C382.2 343.9 335.2 368.5 292.7 402.9C250.3 437.3 212.4 481.4 164.4 506C116.4 530.6 58.2 535.7 0 540.8L0 0Z" fill="#000"></path></g></svg>